<svg xmlns="http://www.w3.org/2000/svg" viewBox="0 0 832.23 143.63"><defs><style>.cls-1{fill:#e10000;}.cls-2{fill:#333;}</style></defs><g id="Livello_2" data-name="Livello 2"><g id="Livello_1-2" data-name="Livello 1"><path class="cls-1" d="M832.23,14a14,14,0,1,0-14,14,14,14,0,0,0,14-14Zm-2.74,0A11.25,11.25,0,1,1,818.22,2.77,11.28,11.28,0,0,1,829.49,14Zm-9.58,1v-.08c2.51-.3,4-1.9,4-4.15s-1.49-4.16-4.68-4.16h-7.34V21.5h3V15.39h.56c1.31,0,1.84.15,2.43.75a13.07,13.07,0,0,1,2,2.92l1.2,2.44h3.7l-1.72-3c-1.5-2.62-1.91-3-3.18-3.48ZM818,13h-3.11V9h2.77c2,0,3.07.71,3.07,2,0,1.06-.67,2.07-2.73,2.07Zm-28.29,91.38V10.89A10.81,10.81,0,0,0,778.92.08h-2.45a10.8,10.8,0,0,0-10.78,10.81V78.68s.16,3.51-1.43,4-3.57-3.1-3.57-3.1L711.24,17.4S700.78,0,688.17,0c-15.45,0-18.78,17.64-18.78,17.64v92a10.8,10.8,0,0,0,10.78,10.81h2.45a10.79,10.79,0,0,0,10.78-10.81V40.05s-.1-2.86,1.2-3.33,3.09,2.38,3.09,2.38l56.82,72.72c5,6,10.33,10.13,21.64,8.58,5.23-.72,13.56-8.1,13.56-16Zm-129.62,0V10.89A10.8,10.8,0,0,0,649.3.08h-2.44a10.8,10.8,0,0,0-10.79,10.81V78.68s.16,3.51-1.42,4c-1.75.59-3.57-3.1-3.57-3.1L581.62,17.41S571.16,0,558.56,0c-15.46,0-18.78,17.65-18.78,17.65v91.94a10.79,10.79,0,0,0,10.78,10.81H553a10.8,10.8,0,0,0,10.78-10.81V40.06s-.11-2.86,1.19-3.34,3.09,2.38,3.09,2.38l56.83,72.72c5,6,10.33,10.13,21.64,8.58,5.23-.71,13.55-8.1,13.55-16ZM530.88,82.77V38A37.9,37.9,0,0,0,493,0H445.46a37.89,37.89,0,0,0-37.84,38V82.77a37.89,37.89,0,0,0,37.84,38H493a37.9,37.9,0,0,0,37.85-37.95Zm-26.82,2.6a10.83,10.83,0,0,1-10.82,10.85h-48a11.06,11.06,0,0,1-10.93-11v-50a10.82,10.82,0,0,1,10.81-10.84h48a11,11,0,0,1,10.94,11v50Zm-105.64-69A15.16,15.16,0,0,0,384.25,0a14.77,14.77,0,0,0-15.6,11.76L340.78,81.6a3.34,3.34,0,0,1-3.08,3.6,3.4,3.4,0,0,1-3.54-3.6L306.29,11.79A14.77,14.77,0,0,0,290.69,0a15.16,15.16,0,0,0-14.17,16.32v92.12a12.2,12.2,0,0,0,12.52,12,12.07,12.07,0,0,0,11.81-11.75V73.92A1.53,1.53,0,0,1,302,73.2a1.69,1.69,0,0,1,1.89,1.44l10.16,24.71c4.65,12,11.66,21.82,24.26,21.35,12.09-.44,18.2-9.82,22.52-21.35L371,74.64a1.69,1.69,0,0,1,1.88-1.44,1.56,1.56,0,0,1,1.19.72v34.79a12.05,12.05,0,0,0,11.81,11.75,12.2,12.2,0,0,0,12.52-12V16.35ZM265.7,98.7l-38-87.62C223.93,3.72,217.87,0,209.6,0c-9.34,0-16.49,5.25-19.31,14.15L152,101.46a12.21,12.21,0,1,0,21.46,11.07l6.62-14.14h58.06l7.67,14.76a12.66,12.66,0,0,0,16.86,6.45c7.48-3.45,7.05-12.91,3.06-20.9ZM226.5,69.94a3.24,3.24,0,0,1-3.24,3.24H195a3.24,3.24,0,0,1-3.23-3.24l15-34.71c0-1.79,2.22-3.55,4.06-.17L226.5,69.94Z"/><path class="cls-2" d="M68.08,117.37a3.06,3.06,0,0,1-3,3H56.51a3.07,3.07,0,0,1-3-3V81.86a4.53,4.53,0,0,0-1.29-3.59,4.14,4.14,0,0,0-2.76-1.13,7,7,0,0,0-5.89,3c-1.46,2-2.19,4.7-2.19,8.15v29.1a3,3,0,0,1-.9,2.13,2.92,2.92,0,0,1-2.14.9H29.77a3.07,3.07,0,0,1-3-3V81.86a4.53,4.53,0,0,0-1.29-3.59,4.14,4.14,0,0,0-2.75-1.13,7,7,0,0,0-5.9,3c-1.46,2-2.19,4.7-2.19,8.15v29.1a3.07,3.07,0,0,1-3,3H3a2.91,2.91,0,0,1-2.13-.9,2.91,2.91,0,0,1-.9-2.13V68.72a2.92,2.92,0,0,1,.9-2.14A2.91,2.91,0,0,1,3,65.68H9.55a3,3,0,0,1,2.13.73,3.5,3.5,0,0,1,1,2l.78,3.37a21.08,21.08,0,0,1,6.63-4.94,17.13,17.13,0,0,1,7.53-1.91q9.21,0,12.36,7.19a20.12,20.12,0,0,1,6.68-5.23,17.58,17.58,0,0,1,7.81-2,13.06,13.06,0,0,1,9.89,3.87q3.7,3.89,3.7,11.3Z"/><path class="cls-2" d="M108.53,123.21q-2.25,8.08-6,12.41a25.8,25.8,0,0,1-8.59,6.58l-2.48,1.12a2.78,2.78,0,0,1-2.3.11,3.16,3.16,0,0,1-1.63-1.68l-3.14-6.07a2.75,2.75,0,0,1-.12-2.3A3.08,3.08,0,0,1,86,131.75a19.61,19.61,0,0,0,7.13-5.68,22.88,22.88,0,0,0,4.1-9.72H93a3.55,3.55,0,0,1-3.6-2.8l-14-44.38a2.54,2.54,0,0,1,.17-2.53,2.33,2.33,0,0,1,2-1h9.89q2.58,0,3.37,2.81l8,32a23.64,23.64,0,0,1,.67,4c.07,1.2.15,2.58.22,4.16.23-1.28.49-2.53.79-3.77s.64-2.71,1-4.44l7.19-32A3.13,3.13,0,0,1,112,65.68h8.77a2.34,2.34,0,0,1,2,1,2.93,2.93,0,0,1,.17,2.75Z"/></g></g></svg>